<?xml version="1.0" encoding="iso-8859-1"?>
<!-- Generator: Adobe Illustrator 19.0.0, SVG Export Plug-In . SVG Version: 6.00 Build 0)  -->
<svg version="1.1" id="Capa_1" xmlns="http://www.w3.org/2000/svg" xmlns:xlink="http://www.w3.org/1999/xlink" x="0px" y="0px"
	 viewBox="0 0 363.715 363.715" style="enable-background:new 0 0 363.715 363.715;" xml:space="preserve">
<polygon style="fill:#306584;" points="313.057,232.857 52.657,232.857 6.657,316.457 357.057,316.457 "/>
<polygon style="fill:#3F7889;" points="52.657,232.857 6.657,316.457 25.857,316.457 71.857,232.857 "/>
<path style="fill:#8EC2FF;" d="M79.457,231.257h-24.8v-137.6c0,0-3.2-46.4,51.6-46.4h163.2c0,0,43.2,2,43.2,41.6v144L79.457,231.257
	z"/>
<path style="fill:#A4D2FF;" d="M120.257,47.657h-14c-54.8,0-51.6,46.4-51.6,46.4v137.6h14v-138
	C68.257,93.657,65.457,47.657,120.257,47.657z"/>
<path style="fill:#E9EAF0;" d="M287.857,231.257v-125.6c0-19.6-16-35.6-35.6-35.6h-138.8c-19.6,0-35.6,16-35.6,35.6v125.6H287.857z"
	/>
<path style="fill:#F5F6F7;" d="M130.657,70.057h-16.8c-20,0-36,16-36,35.6v125.6h16.8v-125.6
	C95.057,86.057,111.057,70.057,130.657,70.057z"/>
<g>
	<path style="fill:#382E22;" d="M319.457,231.257v-139.6c0-27.6-22.4-50.4-50.4-50.4h-172c-27.6,0-50.4,22.4-50.4,50.4v139.6
		l-46,82.8c-2,4,0.8,8.4,5.2,8.4h352c4.4,0,7.2-4.8,5.2-8.4L319.457,231.257z M97.057,53.657h172c20.8,0,38,17.2,38,38v135.2h-13.2
		v-119.6c0-23.2-18.8-41.6-41.6-41.6h-138.8c-23.2,0-41.6,18.8-41.6,41.6v119.2h-12.8v-134.8
		C59.057,70.857,75.857,53.657,97.057,53.657z M281.457,226.457h-197.6v-119.2c0-16.4,13.2-29.6,29.6-29.6h138.8
		c16.4,0,29.6,13.2,29.6,29.6v119.2H281.457z M56.257,238.857h252.8l37.6,71.6h-329.6L56.257,238.857z"/>
	<polygon style="fill:#382E22;" points="109.857,301.257 208.657,301.257 208.657,288.857 116.657,288.857 	"/>
	<polygon style="fill:#382E22;" points="231.457,288.857 231.457,301.257 283.857,301.257 279.057,288.857 	"/>
	<polygon style="fill:#382E22;" points="253.057,248.057 79.457,248.057 73.057,260.457 257.457,260.457 	"/>
	<polygon style="fill:#382E22;" points="270.657,267.657 61.057,267.657 54.657,279.657 275.457,279.657 	"/>
	<path style="fill:#382E22;" d="M232.257,96.057l1.2,12.4l8-0.8l-42.4,60l-42.8-26.8c-2.8-1.6-6.4-1.2-8,1.6l-33.2,44.4
		c-0.8,0-1.6-0.4-2.4-0.4c-7.6,0-13.6,6-13.6,13.6s6,13.6,13.6,13.6s13.6-6,13.6-13.6c0-2-0.4-4-1.6-6l30-39.6l42.8,26.8
		c2.8,1.6,6.4,0.8,8.4-1.6l45.6-64.4l1.6,7.2l12-2.8l-6-25.6L232.257,96.057z"/>
</g>
<g>
</g>
<g>
</g>
<g>
</g>
<g>
</g>
<g>
</g>
<g>
</g>
<g>
</g>
<g>
</g>
<g>
</g>
<g>
</g>
<g>
</g>
<g>
</g>
<g>
</g>
<g>
</g>
<g>
</g>
</svg>
