<?xml version="1.0" encoding="iso-8859-1"?>
<!-- Generator: Adobe Illustrator 19.0.0, SVG Export Plug-In . SVG Version: 6.00 Build 0)  -->
<svg version="1.1" id="Capa_1" xmlns="http://www.w3.org/2000/svg" xmlns:xlink="http://www.w3.org/1999/xlink" x="0px" y="0px"
	 viewBox="0 0 338.7 338.7" style="enable-background:new 0 0 338.7 338.7;" xml:space="preserve">
<path style="fill:#306584;" d="M171.514,5.9l133.2,43.2v98c0,0,5.2,138.8-134,184.8h-0.8h-0.8h-0.8c-139.2-45.6-134-184.4-134-184.4
	V49.1l133.2-43.2H171.514z"/>
<path style="fill:#3F7889;" d="M51.514,147.5V49.1l126.4-41.2l-6.4-2h-4l-133.2,43.2v98c0,0-5.2,138.8,134,184.8h0.8h0.8h0.8
	c2.4-0.8,4.8-1.6,7.6-2.8C46.714,281.1,51.514,147.5,51.514,147.5z"/>
<path style="fill:#E9EAF0;" d="M168.314,39.1l101.2,35.2v69.2c0,0,4,100.8-99.6,149.2c0,0-80-26.4-101.2-134V72.3L168.314,39.1z"/>
<path style="fill:#F5F6F7;" d="M87.114,159.1V72.3l90-30l-9.2-3.2l-99.6,33.2v87.2c22,107.2,101.6,133.6,101.6,133.6
	c2.8-1.2,5.6-2.8,8.4-4.4C156.314,277.5,103.914,243.1,87.114,159.1z"/>
<g>
	<path style="fill:#382E22;" d="M310.714,147.5V49.1c0-2.8-1.6-5.2-4.4-6l-132.8-42.8c-1.2-0.4-2.8-0.4-4,0c-1.2-0.4-2.8-0.4-4,0
		l-133.2,43.2c-2.4,0.8-4.4,3.2-4.4,6v98c0,1.6-3.6,144,138,190.8c0.8,0.4,1.2,0.4,2,0.4h2.4c0.8,0,1.2,0,2-0.4
		C314.714,291.1,311.114,148.7,310.714,147.5z M169.914,325.9h-0.4c-132.4-44-129.2-172.8-129.2-178.4V53.9l129.2-42l0,0l0,0
		l128.8,42v94C298.714,149.1,301.914,281.5,169.914,325.9z"/>
	<path style="fill:#382E22;" d="M272.314,66.7l-100-33.6c-0.8-0.4-1.6-0.4-2.4-0.4c-0.8,0-1.6,0-2.4,0.4l-100,33.6
		c-2.4,0.8-4,3.2-4,6v76.4c0,1.2,5.2,110.4,104.4,149.2c0.8,0.4,1.6,0.4,2.4,0.4s1.6,0,2.4-0.4c99.6-38.4,104.4-148,104.4-149.2
		V72.7C276.714,69.9,275.114,67.5,272.314,66.7z M169.914,285.9c-89.6-36.4-94.4-136-94.4-136.8v-72l94.4-31.6l94.4,31.6v71.6
		C264.314,149.9,259.914,249.5,169.914,285.9z"/>
	<path style="fill:#382E22;" d="M231.914,124.3l-71.6,85.6l-46-48.4c-2.4-2.4-6.4-2.4-8.8-0.4c-2.4,2.4-2.4,6.4-0.4,8.8l50.8,53.2
		c1.2,1.2,2.8,2,4.4,2l0,0c1.6,0,3.6-0.8,4.4-2.4l75.6-90.8c2-2.8,2-6.4-0.8-8.8C237.914,121.5,233.914,121.9,231.914,124.3z"/>
</g>
<g>
</g>
<g>
</g>
<g>
</g>
<g>
</g>
<g>
</g>
<g>
</g>
<g>
</g>
<g>
</g>
<g>
</g>
<g>
</g>
<g>
</g>
<g>
</g>
<g>
</g>
<g>
</g>
<g>
</g>
</svg>
