<?xml version="1.0" encoding="iso-8859-1"?>
<!-- Generator: Adobe Illustrator 19.0.0, SVG Export Plug-In . SVG Version: 6.00 Build 0)  -->
<svg version="1.1" id="Capa_1" xmlns="http://www.w3.org/2000/svg" xmlns:xlink="http://www.w3.org/1999/xlink" x="0px" y="0px"
	 viewBox="0 0 359.2 359.2" style="enable-background:new 0 0 359.2 359.2;" xml:space="preserve">
<polygon style="fill:#2FB55B;" points="210.749,72.4 230.749,6.4 128.349,6.4 147.149,72.4 "/>
<polygon style="fill:#49C45D;" points="128.349,6.4 147.149,72.4 166.749,72.4 147.949,6.4 "/>
<path style="fill:#2FB55B;" d="M306.349,291.6c2.4,33.6-23.6,61.6-57.6,61.6h-137.6c-34,0-59.6-27.6-57.6-61.6l10.4-155.2
	c2.4-33.6,32-61.6,65.6-61.6h100.8c34,0,63.6,27.6,65.6,61.6L306.349,291.6z"/>
<path style="fill:#49C45D;" d="M76.749,291.6l10.4-155.2c2.4-33.6,32-61.6,65.6-61.6h-23.2c-34,0-63.6,27.6-65.6,61.6l-10.4,155.2
	c-2.4,33.6,23.6,61.6,57.6,61.6h23.2C100.349,352.8,74.349,325.2,76.749,291.6z"/>
<circle style="fill:#EFBF1D;" cx="179.549" cy="183.6" r="64.4"/>
<path style="fill:#F4D32F;" d="M133.549,183.6c0-32.4,24-59.2,55.2-63.6c-2.8-0.4-6-0.8-9.2-0.8c-35.6,0-64.4,28.8-64.4,64.4
	s28.8,64.4,64.4,64.4c3.2,0,6-0.4,9.2-0.8C157.549,242.8,133.549,216,133.549,183.6z"/>
<g>
	<path style="fill:#382E22;" d="M312.349,291.2l-10.4-155.2c-2.4-37.2-34.8-67.2-72-67.2h-12l18.8-60.8c0.4-2,0.4-4-0.8-5.6
		c-1.2-1.6-2.8-2.4-4.8-2.4h-102.8c-2,0-4,1.2-5.2,2.8c-1.2,1.6-1.2,4-0.8,5.6l18.4,60.4h-11.6c-37.2,0-69.2,30-72,67.2l-10.4,155.2
		c-1.2,18,4.8,35.2,16.8,48s28.8,20,46.8,20h138c18,0,34.8-7.2,46.8-20C307.949,326.4,313.949,309.2,312.349,291.2z M205.149,68.8
		h-19.2V12.4h36.4L205.149,68.8z M137.549,12.4h36.4v56.4h-20L137.549,12.4z M286.749,330.8c-9.6,10.4-23.2,16-37.6,16h-138
		c-14.8,0-28-5.6-37.6-16c-9.6-10.4-14.4-24-13.6-38.8l10.4-155.2c2-30.8,28.8-55.6,59.6-55.6h100.8c30.8,0,57.6,24.8,59.6,55.6
		l10.4,155.2C301.149,306.4,296.349,320.4,286.749,330.8z"/>
	<path style="fill:#382E22;" d="M184.349,178c-9.6-3.6-13.6-6.4-13.6-12.4c0-5.2,4.4-10,12-10c6.8,0,12,2.4,14.8,4l3.2-9.6
		c-3.2-2-8.4-3.6-14.4-4.4v-10.8h-12.4v12c-10,2.8-16,10.8-16,20c0,8.8,6,16,19.2,20.4c9.6,3.6,13.6,7.2,13.6,13.2
		s-4.4,10.8-14,10.8c-6.4,0-13.6-2.8-17.2-5.2l-3.6,10.4c4.4,2.8,11.2,4.4,18,4.8v9.2h12.4V220c10.8-2.8,16.8-10.4,16.8-20.4
		C203.149,188.8,196.749,182.8,184.349,178z"/>
	<path style="fill:#382E22;" d="M180.349,113.2c-38.8,0-70.4,31.6-70.4,70.4s31.6,70.4,70.4,70.4s70-31.6,70-70.4
		S218.749,113.2,180.349,113.2z M180.349,241.6c-32,0-58-26-58-58s26-58,58-58s58,26,58,58
		C237.949,215.6,211.949,241.6,180.349,241.6z"/>
</g>
<g>
</g>
<g>
</g>
<g>
</g>
<g>
</g>
<g>
</g>
<g>
</g>
<g>
</g>
<g>
</g>
<g>
</g>
<g>
</g>
<g>
</g>
<g>
</g>
<g>
</g>
<g>
</g>
<g>
</g>
</svg>
