<?xml version="1.0" encoding="iso-8859-1"?>
<!-- Generator: Adobe Illustrator 19.0.0, SVG Export Plug-In . SVG Version: 6.00 Build 0)  -->
<svg version="1.1" id="Capa_1" xmlns="http://www.w3.org/2000/svg" xmlns:xlink="http://www.w3.org/1999/xlink" x="0px" y="0px"
	 viewBox="0 0 302.4 302.4" style="enable-background:new 0 0 302.4 302.4;" xml:space="preserve">
<circle style="fill:#E9EAF0;" cx="151.2" cy="151.2" r="145.2"/>
<path style="fill:#F5F6F7;" d="M31.2,151.2c0-76,58.4-138.4,132.4-144.4c-4-0.4-8.4-0.4-12.4-0.4C71.2,6,6,71.2,6,151.2
	s64.8,145.2,145.2,145.2c4.4,0,8.4-0.4,12.4-0.4C89.6,289.6,31.2,227.2,31.2,151.2z"/>
<path style="fill:#2FB55B;" d="M296.4,151.2H151.2V6C151.2,6,286,0.4,296.4,151.2z"/>
<path style="fill:#EFBF1D;" d="M254.8,252.8L151.2,151.2h145.2C296.4,151.2,298,207.6,254.8,252.8z"/>
<path style="fill:#382E22;" d="M259.6,256.8c26.4-27.2,42.8-64.4,42.8-105.6C302.4,67.6,234.4,0,151.2,0S0,67.6,0,151.2
	s68,151.2,151.2,151.2c42,0,80.4-17.2,108-45.2C259.2,257.2,259.2,257.2,259.6,256.8L259.6,256.8z M166.4,157.2H290
	c-1.6,33.2-14.4,63.2-35.2,86.4L166.4,157.2z M290,145.2H157.2V12.4C229.2,15.6,286.8,73.2,290,145.2z M12,151.2
	C12,76.8,71.2,15.6,144.8,12.4v138.8l0,0c0,0.8,0,1.6,0.4,2.4s0.8,1.6,1.2,2l0,0l99.2,97.2c-24.8,23.2-58.4,37.6-94.8,37.6
	C74.4,290.4,12,228,12,151.2z"/>
<g>
</g>
<g>
</g>
<g>
</g>
<g>
</g>
<g>
</g>
<g>
</g>
<g>
</g>
<g>
</g>
<g>
</g>
<g>
</g>
<g>
</g>
<g>
</g>
<g>
</g>
<g>
</g>
<g>
</g>
</svg>
