<?xml version="1.0" encoding="iso-8859-1"?>
<!-- Generator: Adobe Illustrator 19.0.0, SVG Export Plug-In . SVG Version: 6.00 Build 0)  -->
<svg version="1.1" id="Capa_1" xmlns="http://www.w3.org/2000/svg" xmlns:xlink="http://www.w3.org/1999/xlink" x="0px" y="0px"
	 viewBox="0 0 311.853 311.853" style="enable-background:new 0 0 311.853 311.853;" xml:space="preserve">
<polygon style="fill:#2FB55B;" points="194.327,39.453 155.927,6.253 81.927,81.853 "/>
<polygon style="fill:#49C45D;" points="168.327,17.053 155.927,6.253 81.927,81.853 118.727,67.853 "/>
<polygon style="fill:#2FB55B;" points="270.327,97.053 221.527,29.053 41.527,97.053 "/>
<polygon style="fill:#49C45D;" points="221.527,29.053 41.527,97.053 87.127,97.053 231.127,42.653 "/>
<path style="fill:#306584;" d="M296.727,274.653c0,16.8-14,30.8-30.8,30.8h-220c-16.8,0-30.8-14-30.8-30.8v-146.8
	c0-16.8,14-30.8,30.8-30.8h220c16.8,0,30.8,14,30.8,30.8V274.653z"/>
<path style="fill:#3F7889;" d="M38.327,274.653v-146.8c0-16.8,14-30.8,30.8-30.8h-23.2c-16.8,0-30.8,14-30.8,30.8v146.8
	c0,16.8,14,30.8,30.8,30.8h23.2C51.927,305.453,38.327,291.453,38.327,274.653z"/>
<path style="fill:#E9EAF0;" d="M267.127,214.253v32.4c0,18.4-14.8,33.2-33.2,33.2h-156c-18.4,0-33.2-14.8-33.2-33.2v-90.8
	c0-18.4,14.8-33.2,33.2-33.2h156c18.4,0,33.2,14.8,33.2,33.2v20V214.253z"/>
<path style="fill:#F5F6F7;" d="M66.327,246.653v-90.8c0-18.4,14.8-33.2,33.2-33.2h-21.6c-18.4,0-33.2,14.8-33.2,33.2v90.8
	c0,18.4,14.8,33.2,33.2,33.2h21.6C81.127,279.853,66.327,265.053,66.327,246.653z"/>
<g>
	<path style="fill:#306584;" d="M213.927,214.653h63.2c10.8,0,19.6-8.8,19.6-19.6l0,0c0-10.8-8.8-19.6-19.6-19.6h-63.2V214.653z"/>
	<path style="fill:#306584;" d="M221.527,194.653c0,7.6-3.2,14.4-8,19.2c-4.8,4.8-11.6,8-19.2,8c-14.8,0-27.2-12-27.2-27.2
		c0-14.8,12-27.2,27.2-27.2c7.6,0,14,3.2,19.2,8C218.327,180.653,221.527,187.453,221.527,194.653z"/>
</g>
<path style="fill:#382E22;" d="M273.927,91.853l-47.6-66.4c-1.6-2.4-4.4-3.2-7.2-2l-23.6,8.8l-35.6-30.8c-2.4-2-6-2-8.4,0.4
	l-73.2,74.8l-38.8,14.8l-0.4,0.4c-17.2,3.2-30,18.4-30,36.4v146.8c0,20.4,16.4,36.8,36.8,36.8h220c20.4,0,36.8-16.4,36.8-36.8
	v-147.2C302.727,110.653,290.727,95.853,273.927,91.853z M258.327,91.053h-183.2l8.8-3.6l0,0l134.8-51.2L258.327,91.053z
	 M156.327,14.653l26,22.4l-76.8,29.2L156.327,14.653z M265.927,299.453h-220c-13.6,0-24.8-11.2-24.8-24.8v-146.8
	c0-13.6,11.2-24.8,24.8-24.8h220c13.6,0,24.8,11.2,24.8,24.8v44.8c-4-2.4-8.4-4-13.6-4h-5.6v-12.4c0-21.2-17.2-38.8-38.8-38.8
	h-153.6c-21.2,0-38.8,17.2-38.8,38.8v89.6c0,21.2,17.2,38.8,38.8,38.8h153.6c21.2,0,38.8-17.2,38.8-38.8v-25.6h5.6
	c4.8,0,9.6-1.6,13.6-4v58C290.727,288.253,279.527,299.453,265.927,299.453z M259.527,169.053h-44.4c-6-4.8-13.2-7.6-20.8-7.6
	c-18.4,0-33.2,14.8-33.2,33.2c0,18.4,14.8,33.2,33.2,33.2c7.6,0,14.8-2.8,20.4-7.2h44.8v25.6c0,14.8-12,26.8-26.8,26.8h-153.6
	c-14.8,0-26.8-12-26.8-26.8v-89.6c0-14.8,12-26.8,26.8-26.8h153.6c14.8,0,26.8,12,26.8,26.8L259.527,169.053L259.527,169.053z
	 M209.127,209.453c-4,4-9.2,6-14.8,6c-11.6,0-20.8-9.2-20.8-20.8c0-11.6,9.2-20.8,20.8-20.8c5.6,0,10.8,2,14.8,6s6,9.2,6,14.8
	S213.127,205.453,209.127,209.453z M224.727,208.253c2-4.4,2.8-8.8,2.8-13.6c0-4.8-1.2-9.2-2.8-13.6h52.4c7.6,0,13.6,6,13.6,13.6
	s-6,13.6-13.6,13.6H224.727z"/>
<g>
</g>
<g>
</g>
<g>
</g>
<g>
</g>
<g>
</g>
<g>
</g>
<g>
</g>
<g>
</g>
<g>
</g>
<g>
</g>
<g>
</g>
<g>
</g>
<g>
</g>
<g>
</g>
<g>
</g>
</svg>
